<?xml version="1.0" standalone="no"?>
<!DOCTYPE svg PUBLIC "-//W3C//DTD SVG 20010904//EN"
 "http://www.w3.org/TR/2001/REC-SVG-20010904/DTD/svg10.dtd">
<svg version="1.0" xmlns="http://www.w3.org/2000/svg"
 width="1024.000000pt" height="1024.000000pt" viewBox="0 0 1024.000000 1024.000000"
 preserveAspectRatio="xMidYMid meet">

<g transform="translate(0.000000,1024.000000) scale(0.100000,-0.100000)"
fill="#000000" stroke="none">
<path d="M4153 7869 c-729 -39 -1331 -224 -1843 -565 -183 -121 -277 -199
-445 -368 -238 -239 -391 -456 -545 -771 -235 -480 -370 -1017 -470 -1874 -17
-141 -18 -176 -8 -183 12 -8 440 -8 510 0 l33 4 1 286 c0 334 17 522 68 766
91 433 292 887 553 1249 111 155 181 236 332 388 515 514 1150 837 1940 984
117 22 327 48 586 72 l80 8 -110 6 c-148 9 -507 8 -682 -2z"/>
<path d="M4935 7763 c-645 -54 -1180 -194 -1663 -437 -1003 -503 -1613 -1378
-1743 -2501 -14 -115 -17 -547 -5 -647 l8 -68 480 0 481 0 -6 43 c-3 23 -20
106 -36 185 -17 78 -31 152 -31 162 0 19 7 20 104 20 l105 0 25 -82 c13 -46
39 -132 56 -193 17 -60 37 -115 43 -122 9 -9 94 -12 322 -13 577 -2 725 0 725
8 0 5 -34 67 -76 138 -368 627 -559 1265 -524 1745 12 170 23 226 71 372 199
607 756 1076 1553 1307 85 24 287 69 376 83 30 5 -208 5 -265 0z m-217 -58
c-11 -11 -312 -95 -340 -95 -78 0 18 38 202 79 84 19 149 26 138 16z m-453
-125 c9 -15 -31 -35 -168 -84 -123 -44 -177 -56 -177 -37 0 21 84 57 250 107
88 27 87 27 95 14z m-540 -229 c-30 -29 -215 -130 -252 -137 -72 -14 -19 39
97 96 78 39 128 58 155 59 19 1 19 1 0 -18z m-411 -250 c6 -10 -199 -207 -237
-228 -26 -14 -67 -17 -67 -4 0 19 73 102 132 148 106 84 157 109 172 84z
m-400 -413 c-4 -7 -38 -60 -74 -118 -37 -58 -82 -132 -101 -165 -39 -70 -44
-75 -86 -75 -28 0 -33 4 -33 23 0 30 85 173 161 271 57 72 62 76 100 76 29 0
38 -3 33 -12z m-311 -575 c2 -5 -6 -48 -19 -98 -21 -82 -54 -243 -69 -337 l-6
-38 -54 0 c-79 0 -83 3 -74 58 15 98 74 316 102 385 15 36 18 37 66 37 27 0
52 -3 54 -7z m-101 -868 c4 -77 15 -194 23 -260 8 -67 15 -129 15 -138 0 -15
-12 -17 -89 -17 l-88 0 -7 53 c-10 79 -20 472 -13 491 6 14 19 16 79 14 l73
-3 7 -140z"/>
<path d="M7799 6895 c-3 -3 47 -155 113 -338 65 -182 127 -357 137 -387 11
-30 56 -158 101 -285 45 -126 122 -347 172 -490 50 -143 96 -275 104 -292 l13
-33 229 0 c172 0 232 3 239 13 6 6 44 113 85 237 83 246 263 759 438 1245 61
171 112 315 113 320 1 6 -68 10 -193 10 l-195 0 -77 -225 c-42 -124 -150 -442
-240 -707 -90 -264 -165 -479 -167 -477 -5 5 -162 449 -350 991 l-143 411 -47
5 c-73 6 -326 8 -332 2z"/>
<path d="M4089 6838 c10 -29 92 -251 181 -493 164 -446 278 -758 391 -1075 34
-96 67 -181 72 -188 8 -9 62 -12 234 -10 l225 3 14 35 c26 68 644 1773 644
1776 0 2 -89 4 -199 4 l-198 0 -243 -710 c-134 -390 -246 -710 -249 -710 -3 0
-109 305 -235 678 -126 372 -235 692 -242 710 l-13 32 -200 0 -200 0 18 -52z"/>
<path d="M6060 5980 l0 -910 190 0 190 0 0 384 0 384 223 7 c122 3 299 5 392
3 l170 -3 3 -387 2 -388 185 0 184 0 -2 908 -2 907 -182 3 -183 2 0 -355 0
-355 -117 0 c-65 0 -243 -3 -395 -7 l-278 -6 0 361 0 362 -190 0 -190 0 0
-910z"/>
<path d="M5366 4689 c-67 -11 -124 -53 -155 -114 -23 -43 -26 -62 -26 -145 0
-79 4 -102 22 -137 70 -131 252 -163 394 -69 l39 26 0 100 0 100 -103 0 -103
0 4 -40 4 -40 57 0 57 0 -4 -41 c-4 -37 -8 -43 -46 -60 -81 -37 -157 -17 -210
54 -17 24 -21 43 -21 112 0 78 2 86 31 122 62 77 168 79 222 4 26 -36 29 -37
59 -27 44 15 47 20 30 53 -43 81 -139 121 -251 102z"/>
<path d="M9023 4689 c-89 -17 -152 -74 -178 -161 -40 -135 6 -276 107 -330 62
-33 193 -32 258 1 85 44 90 52 90 158 l0 93 -105 0 -105 0 0 -40 0 -40 60 0
60 0 0 -40 c0 -38 -3 -42 -42 -60 -91 -41 -180 -16 -220 62 -24 46 -26 153 -4
196 21 41 70 80 109 87 46 9 113 -20 135 -57 15 -26 21 -29 52 -23 19 4 38 9
42 11 10 7 -25 74 -49 96 -44 40 -138 61 -210 47z"/>
<path d="M4160 4435 l0 -255 180 0 180 0 0 35 0 35 -135 0 -135 0 0 75 0 75
115 0 115 0 0 35 0 35 -115 0 -115 0 0 70 0 70 130 0 130 0 0 40 0 40 -175 0
-175 0 0 -255z"/>
<path d="M4640 4435 l0 -255 40 0 40 0 1 58 c1 31 1 110 1 175 -1 64 2 117 6
117 4 0 56 -79 117 -175 l110 -175 47 0 47 0 3 243 c2 133 1 248 -1 255 -2 7
-19 12 -42 12 l-39 0 -2 -182 -3 -183 -115 182 -115 183 -47 0 -48 0 0 -255z"/>
<path d="M5770 4435 l0 -255 45 0 45 0 0 255 0 255 -45 0 -45 0 0 -255z"/>
<path d="M6000 4435 l0 -255 45 0 45 0 2 177 3 177 111 -175 110 -174 47 -3
47 -3 0 255 0 256 -40 0 -40 0 0 -176 c0 -97 -4 -173 -9 -170 -4 3 -57 82
-116 176 l-107 170 -49 0 -49 0 0 -255z"/>
<path d="M6560 4435 l0 -255 175 0 175 0 0 35 0 35 -130 0 -130 0 0 75 0 75
115 0 115 0 0 35 0 35 -115 0 -115 0 0 70 0 70 125 0 c131 0 128 -1 128 45 0
8 -1 20 -2 25 -1 6 -65 10 -171 10 l-170 0 0 -255z"/>
<path d="M7040 4451 c0 -132 3 -246 6 -255 5 -14 31 -16 180 -16 l174 0 0 35
0 34 -132 3 -133 3 -3 73 -3 72 116 0 115 0 0 35 0 35 -115 0 -115 0 0 70 0
70 130 0 130 0 0 40 0 40 -175 0 -175 0 0 -239z"/>
<path d="M7530 4436 l0 -256 45 0 45 0 0 95 0 95 53 0 52 0 50 -95 50 -95 48
0 c26 0 47 2 47 5 0 2 -23 48 -51 100 -28 53 -50 97 -48 99 2 1 17 10 32 20
33 20 66 87 67 130 0 44 -35 109 -72 131 -28 17 -55 21 -175 23 l-143 4 0
-256z m264 153 c34 -27 36 -82 4 -116 -19 -20 -31 -23 -100 -23 l-78 0 0 80 0
80 74 0 c59 0 78 -4 100 -21z"/>
<path d="M8060 4435 l0 -255 45 0 c54 0 48 -38 46 318 l-1 192 -45 0 -45 0 0
-255z"/>
<path d="M8300 4435 l0 -255 40 0 40 0 2 182 3 181 115 -181 115 -182 47 0 48
0 2 213 c1 223 1 238 -1 275 -1 19 -7 22 -41 22 l-40 0 0 -175 c0 -96 -3 -175
-7 -175 -5 1 -57 79 -118 175 l-110 175 -47 0 -48 0 0 -255z"/>
</g>
</svg>
